<svg width="24" height="25" viewBox="0 0 24 25" fill="none" xmlns="http://www.w3.org/2000/svg">
<path opacity="0.2" d="M17.25 8V20C17.25 20.1989 17.171 20.3897 17.0303 20.5303C16.8897 20.671 16.6989 20.75 16.5 20.75H4.5C4.30109 20.75 4.11032 20.671 3.96967 20.5303C3.82902 20.3897 3.75 20.1989 3.75 20V8C3.75 7.80109 3.82902 7.61032 3.96967 7.46967C4.11032 7.32902 4.30109 7.25 4.5 7.25H16.5C16.6989 7.25 16.8897 7.32902 17.0303 7.46967C17.171 7.61032 17.25 7.80109 17.25 8Z" fill="#3C3C3C"/>
<path d="M21 10.25C21 10.4489 20.921 10.6397 20.7803 10.7803C20.6397 10.921 20.4489 11 20.25 11C20.0511 11 19.8603 10.921 19.7197 10.7803C19.579 10.6397 19.5 10.4489 19.5 10.25V6.06125L13.2816 12.2806C13.1408 12.4214 12.95 12.5004 12.7509 12.5004C12.5519 12.5004 12.361 12.4214 12.2203 12.2806C12.0796 12.1399 12.0005 11.949 12.0005 11.75C12.0005 11.551 12.0796 11.3601 12.2203 11.2194L18.4387 5H14.25C14.0511 5 13.8603 4.92098 13.7197 4.78033C13.579 4.63968 13.5 4.44891 13.5 4.25C13.5 4.05109 13.579 3.86032 13.7197 3.71967C13.8603 3.57902 14.0511 3.5 14.25 3.5H20.25C20.4489 3.5 20.6397 3.57902 20.7803 3.71967C20.921 3.86032 21 4.05109 21 4.25V10.25ZM17.25 12.5C17.0511 12.5 16.8603 12.579 16.7197 12.7197C16.579 12.8603 16.5 13.0511 16.5 13.25V20H4.5V8H11.25C11.4489 8 11.6397 7.92098 11.7803 7.78033C11.921 7.63968 12 7.44891 12 7.25C12 7.05109 11.921 6.86032 11.7803 6.71967C11.6397 6.57902 11.4489 6.5 11.25 6.5H4.5C4.10218 6.5 3.72064 6.65804 3.43934 6.93934C3.15804 7.22064 3 7.60218 3 8V20C3 20.3978 3.15804 20.7794 3.43934 21.0607C3.72064 21.342 4.10218 21.5 4.5 21.5H16.5C16.8978 21.5 17.2794 21.342 17.5607 21.0607C17.842 20.7794 18 20.3978 18 20V13.25C18 13.0511 17.921 12.8603 17.7803 12.7197C17.6397 12.579 17.4489 12.5 17.25 12.5Z" fill="#3C3C3C"/>
</svg>
