<svg width="33" height="33" viewBox="0 0 33 33" fill="none" xmlns="http://www.w3.org/2000/svg">
<rect width="32" height="32" rx="16" transform="matrix(1 2.50404e-05 2.55114e-05 1 0.407227 0.408447)" fill="#2B2B3D"/>
<rect x="0.333342" y="0.333342" width="31.3333" height="31.3333" rx="15.6667" transform="matrix(1 2.50404e-05 2.55114e-05 1 0.407218 0.408439)" stroke="white" stroke-opacity="0.15" stroke-width="0.666667"/>
<g clip-path="url(#clip0_137_727)">
<path opacity="0.2" d="M21.4073 14.9089L21.4074 15.4089C21.4074 16.2046 21.0913 16.9676 20.5287 17.5302C19.9661 18.0928 19.2031 18.4089 18.4074 18.4088L16.9074 18.4088C17.4379 18.4088 17.9466 18.6195 18.3217 18.9946C18.6967 19.3697 18.9075 19.8784 18.9075 20.4089L18.9075 22.9089L14.9075 22.9088L14.9075 20.4088C14.9075 19.8783 15.1182 19.3696 15.4932 18.9946C15.8683 18.6195 16.377 18.4088 16.9074 18.4088L15.4074 18.4088C14.6118 18.4087 13.8487 18.0927 13.2861 17.53C12.7235 16.9674 12.4074 16.2043 12.4074 15.4087L12.4073 14.9087C12.4121 14.2999 12.5972 13.7061 12.9392 13.2025C12.7645 12.7501 12.6934 12.2643 12.7311 11.7808C12.7688 11.2973 12.9144 10.8285 13.1572 10.4087C13.7031 10.4086 14.2401 10.546 14.7189 10.8081C15.1977 11.0703 15.6027 11.4488 15.8966 11.9088L17.9179 11.9088C18.2118 11.4489 18.6168 11.0704 19.0956 10.8082C19.5743 10.5461 20.1114 10.4088 20.6572 10.4089C20.9 10.8287 21.0457 11.2976 21.0834 11.781C21.1212 12.2645 21.0501 12.7503 20.8754 13.2027C21.2175 13.7063 21.4026 14.3001 21.4073 14.9089Z" fill="#D7B7FF"/>
<path d="M21.4261 13.139C21.5791 12.6461 21.6283 12.1268 21.5705 11.6139C21.5128 11.1009 21.3493 10.6056 21.0904 10.159C21.0465 10.083 20.9833 10.0199 20.9073 9.97597C20.8313 9.93208 20.745 9.90899 20.6572 9.90901C20.0748 9.90777 19.5003 10.0428 18.9794 10.3032C18.4585 10.5636 18.0057 10.9423 17.6573 11.4089L16.1573 11.4089C15.8088 10.9422 15.356 10.5636 14.8351 10.3031C14.3142 10.0426 13.7396 9.90761 13.1572 9.90882C13.0694 9.9088 12.9832 9.93189 12.9072 9.97577C12.8311 10.0197 12.768 10.0828 12.7241 10.1588C12.4653 10.6054 12.3018 11.1007 12.2439 11.6136C12.1861 12.1265 12.2351 12.6458 12.3879 13.1388C12.079 13.678 11.9136 14.2874 11.9074 14.9088L11.9074 15.4088C11.9084 16.2548 12.2156 17.0718 12.7721 17.7091C13.3286 18.3463 14.0968 18.7607 14.935 18.8757C14.5928 19.3135 14.4072 19.8532 14.4075 20.4088L14.4075 20.9088L12.9075 20.9088C12.5097 20.9088 12.1281 20.7508 11.8468 20.4694C11.5655 20.1881 11.4075 19.8066 11.4075 19.4088C11.4075 19.0805 11.3428 18.7554 11.2171 18.4521C11.0915 18.1487 10.9073 17.8731 10.6752 17.641C10.443 17.4088 10.1674 17.2247 9.86412 17.099C9.5608 16.9734 9.23571 16.9087 8.90741 16.9087C8.7748 16.9087 8.64762 16.9614 8.55386 17.0551C8.46009 17.1489 8.40741 17.2761 8.40742 17.4087C8.40742 17.5413 8.4601 17.6685 8.55387 17.7623C8.64764 17.856 8.77482 17.9087 8.90743 17.9087C9.30526 17.9087 9.68679 18.0668 9.9681 18.3481C10.2494 18.6294 10.4075 19.0109 10.4075 19.4087C10.4075 20.0718 10.6709 20.7077 11.1397 21.1765C11.6086 21.6454 12.2445 21.9088 12.9075 21.9088L14.4075 21.9089L14.4076 22.9089C14.4076 23.0415 14.4602 23.1686 14.554 23.2624C14.6478 23.3562 14.775 23.4089 14.9076 23.4089C15.0402 23.4089 15.1674 23.3562 15.2611 23.2624C15.3549 23.1687 15.4076 23.0415 15.4076 22.9089L15.4075 20.4089C15.4075 20.0111 15.5655 19.6295 15.8468 19.3482C16.1281 19.0669 16.5096 18.9089 16.9075 18.9089C17.3053 18.9089 17.6868 19.067 17.9681 19.3483C18.2494 19.6296 18.4075 20.0111 18.4075 20.409L18.4076 22.909C18.4076 23.0416 18.4602 23.1687 18.554 23.2625C18.6478 23.3563 18.775 23.409 18.9076 23.409C19.0402 23.409 19.1674 23.3563 19.2611 23.2625C19.3549 23.1688 19.4076 23.0416 19.4076 22.909L19.4075 20.409C19.4078 19.8534 19.2221 19.3136 18.88 18.8758C19.7181 18.7609 20.4863 18.3465 21.0428 17.7093C21.5992 17.0721 21.9063 16.255 21.9074 15.409L21.9074 14.909C21.9013 14.2875 21.7356 13.678 21.4261 13.139ZM20.9074 15.409C20.9074 16.0721 20.644 16.7079 20.1752 17.1768C19.7064 17.6456 19.0705 17.909 18.4074 17.909L15.4074 17.9089C14.7444 17.9089 14.1085 17.6455 13.6396 17.1766C13.1708 16.7077 12.9074 16.0719 12.9074 15.4088L12.9074 14.9088C12.9135 14.4088 13.0632 13.9211 13.3386 13.5038C13.3899 13.4361 13.4232 13.3565 13.4352 13.2724C13.4472 13.1883 13.4376 13.1026 13.4073 13.0232C13.2771 12.6873 13.2144 12.329 13.2228 11.9689C13.2313 11.6088 13.3107 11.2538 13.4566 10.9245C13.8658 10.9685 14.2599 11.104 14.6096 11.3211C14.9592 11.5381 15.2556 11.8311 15.4767 12.1783C15.5217 12.2487 15.5837 12.3067 15.657 12.347C15.7302 12.3873 15.8124 12.4086 15.896 12.4089L17.9179 12.4089C18.0018 12.4089 18.0844 12.3878 18.158 12.3475C18.2317 12.3072 18.2939 12.249 18.3392 12.1783C18.5602 11.8311 18.8565 11.5382 19.2062 11.3211C19.5559 11.1041 19.9499 10.9686 20.3591 10.9246C20.5048 11.2541 20.5841 11.6091 20.5923 11.9692C20.6006 12.3294 20.5377 12.6876 20.4073 13.0234C20.3771 13.102 20.367 13.1869 20.3779 13.2704C20.3888 13.3539 20.4204 13.4333 20.4698 13.5015C20.7479 13.9189 20.8998 14.4076 20.9074 14.909L20.9074 15.409Z" fill="#D7B7FF"/>
</g>
<defs>
<clipPath id="clip0_137_727">
<rect width="16" height="16" fill="white" transform="matrix(1 2.50404e-05 2.55114e-05 1 8.40723 8.40869)"/>
</clipPath>
</defs>
</svg>
