<svg width="58" height="58" viewBox="0 0 58 58" fill="none" xmlns="http://www.w3.org/2000/svg">
<rect x="0.5" y="0.5" width="57" height="57" rx="28.5" stroke="white" stroke-opacity="0.15"/>
<rect x="1" y="1" width="56" height="56" rx="28" fill="#1A1A1C"/>
<path opacity="0.2" d="M29 24.5V38C29 38 19.25 32.75 19.25 26.5625C19.25 25.2198 19.7834 23.9322 20.7328 22.9828C21.6822 22.0334 22.9698 21.5 24.3125 21.5C26.4303 21.5 28.2444 22.6541 29 24.5Z" fill="#D7B7FF"/>
<path d="M33.6875 20.75C31.7516 20.75 30.0566 21.5825 29 22.9897C27.9434 21.5825 26.2484 20.75 24.3125 20.75C22.7715 20.7517 21.294 21.3647 20.2044 22.4544C19.1147 23.544 18.5017 25.0215 18.5 26.5625C18.5 33.125 28.2303 38.4378 28.6447 38.6562C28.7539 38.715 28.876 38.7458 29 38.7458C29.124 38.7458 29.2461 38.715 29.3553 38.6562C29.7697 38.4378 39.5 33.125 39.5 26.5625C39.4983 25.0215 38.8853 23.544 37.7956 22.4544C36.706 21.3647 35.2285 20.7517 33.6875 20.75ZM20 26.5625C20.0015 25.4192 20.4563 24.3232 21.2647 23.5147C22.0732 22.7063 23.1692 22.2515 24.3125 22.25C26.0853 22.25 27.5806 23.1678 28.25 24.6547V36.6875C25.7741 35.135 20 31.0419 20 26.5625ZM29.75 36.6875V24.6547C30.4194 23.1678 31.9147 22.25 33.6875 22.25C34.8308 22.2515 35.9268 22.7063 36.7353 23.5147C37.5437 24.3232 37.9985 25.4192 38 26.5625C38 31.0353 32.2269 35.1322 29.75 36.6875Z" fill="#D7B7FF"/>
</svg>
