<svg width="33" height="33" viewBox="0 0 33 33" fill="none" xmlns="http://www.w3.org/2000/svg">
<rect width="32" height="32" rx="16" transform="matrix(1 2.50404e-05 2.55114e-05 1 0.407227 0.407471)" fill="#2B2B3D"/>
<rect x="0.333342" y="0.333342" width="31.3333" height="31.3333" rx="15.6667" transform="matrix(1 2.50404e-05 2.55114e-05 1 0.407218 0.407462)" stroke="white" stroke-opacity="0.15" stroke-width="0.666667"/>
<path opacity="0.2" d="M22.9073 15.658L22.9074 19.408C22.9074 19.5406 22.8547 19.6677 22.761 19.7615C22.6672 19.8553 22.54 19.9079 22.4074 19.9079L16.4074 19.9078L16.4073 15.6578C16.4073 14.7958 16.0649 13.9692 15.4553 13.3597C14.8458 12.7502 14.0192 12.4077 13.1572 12.4077L19.6572 12.4079C20.5192 12.4079 21.3458 12.7503 21.9553 13.3598C22.5649 13.9693 22.9073 14.796 22.9073 15.658Z" fill="#D7B7FF"/>
<path d="M14.9074 17.9079C14.9074 18.0405 14.8548 18.1676 14.761 18.2614C14.6672 18.3552 14.5401 18.4078 14.4075 18.4078L11.9075 18.4078C11.7748 18.4078 11.6477 18.3551 11.5539 18.2613C11.4601 18.1676 11.4074 18.0404 11.4074 17.9078C11.4074 17.7752 11.4601 17.648 11.5539 17.5542C11.6476 17.4604 11.7748 17.4078 11.9074 17.4078L14.4074 17.4078C14.54 17.4078 14.6672 17.4605 14.761 17.5543C14.8548 17.6481 14.9074 17.7752 14.9074 17.9079ZM23.4074 15.6581L23.4075 19.4081C23.4075 19.6733 23.3021 19.9276 23.1146 20.1152C22.9271 20.3027 22.6727 20.408 22.4075 20.408L16.9075 20.4079L16.9076 22.4079C16.9076 22.5405 16.8549 22.6677 16.7611 22.7615C16.6674 22.8552 16.5402 22.9079 16.4076 22.9079C16.275 22.9079 16.1478 22.8552 16.054 22.7614C15.9602 22.6677 15.9076 22.5405 15.9076 22.4079L15.9075 20.4079L10.4075 20.4077C10.1423 20.4077 9.88793 20.3024 9.70039 20.1148C9.51285 19.9273 9.40749 19.6729 9.40748 19.4077L9.40739 15.6577C9.40852 14.6635 9.80395 13.7104 10.5069 13.0074C11.2099 12.3044 12.1631 11.9089 13.1573 11.9078L17.9073 11.9079L17.9072 9.90793C17.9072 9.77532 17.9599 9.64814 18.0537 9.55438C18.1474 9.46061 18.2746 9.40794 18.4072 9.40794L20.4072 9.40799C20.5398 9.40799 20.667 9.46068 20.7608 9.55445C20.8546 9.64822 20.9072 9.77539 20.9072 9.908C20.9072 10.0406 20.8546 10.1678 20.7608 10.2616C20.667 10.3553 20.5399 10.408 20.4073 10.408L18.9073 10.408L18.9073 11.908L19.6573 11.908C20.6515 11.9092 21.6047 12.3046 22.3077 13.0077C23.0107 13.7107 23.4062 14.6639 23.4074 15.6581ZM15.9075 19.4079L15.9074 15.6579C15.9074 14.9285 15.6176 14.2291 15.1019 13.7133C14.5861 13.1976 13.8867 12.9078 13.1573 12.9078C12.428 12.9078 11.7285 13.1975 11.2128 13.7132C10.6971 14.2289 10.4074 14.9284 10.4074 15.6577L10.4075 19.4077L15.9075 19.4079ZM22.4074 15.658C22.4065 14.9289 22.1165 14.2299 21.601 13.7144C21.0854 13.1988 20.3864 12.9088 19.6573 12.908L18.9073 12.908L18.9074 17.408C18.9074 17.5406 18.8548 17.6677 18.761 17.7615C18.6672 17.8553 18.5401 17.9079 18.4074 17.9079C18.2748 17.9079 18.1477 17.8553 18.0539 17.7615C17.9601 17.6677 17.9074 17.5405 17.9074 17.4079L17.9073 12.9079L15.7042 12.9079C16.0837 13.2584 16.3866 13.6836 16.5937 14.1569C16.8008 14.6302 16.9076 15.1413 16.9074 15.6579L16.9075 19.4079L22.4075 19.408L22.4074 15.658Z" fill="#D7B7FF"/>
</svg>
