<svg width="25" height="24" viewBox="0 0 25 24" fill="none" xmlns="http://www.w3.org/2000/svg">
<path opacity="0.2" d="M14.9167 12C14.9167 12.445 14.7848 12.88 14.5376 13.25C14.2903 13.62 13.9389 13.9084 13.5278 14.0787C13.1167 14.249 12.6643 14.2936 12.2278 14.2068C11.7913 14.12 11.3904 13.9057 11.0758 13.591C10.7611 13.2763 10.5468 12.8754 10.46 12.439C10.3732 12.0025 10.4177 11.5501 10.588 11.139C10.7583 10.7278 11.0467 10.3764 11.4167 10.1292C11.7867 9.88196 12.2217 9.75 12.6667 9.75C13.2635 9.75 13.8358 9.98705 14.2577 10.409C14.6797 10.831 14.9167 11.4033 14.9167 12ZM12.6667 6.75C13.1118 6.75 13.5468 6.61804 13.9168 6.37081C14.2868 6.12357 14.5752 5.77217 14.7455 5.36104C14.9158 4.94991 14.9603 4.49751 14.8735 4.06105C14.7867 3.62459 14.5724 3.22368 14.2577 2.90901C13.9431 2.59434 13.5422 2.38005 13.1057 2.29323C12.6692 2.20642 12.2168 2.25097 11.8057 2.42127C11.3946 2.59157 11.0432 2.87996 10.7959 3.24997C10.5487 3.61998 10.4167 4.05499 10.4167 4.5C10.4167 5.09674 10.6538 5.66903 11.0758 6.09099C11.4977 6.51295 12.07 6.75 12.6667 6.75ZM12.6667 17.25C12.2217 17.25 11.7867 17.382 11.4167 17.6292C11.0467 17.8764 10.7583 18.2278 10.588 18.639C10.4177 19.0501 10.3732 19.5025 10.46 19.939C10.5468 20.3754 10.7611 20.7763 11.0758 21.091C11.3904 21.4057 11.7913 21.62 12.2278 21.7068C12.6643 21.7936 13.1167 21.749 13.5278 21.5787C13.9389 21.4084 14.2903 21.12 14.5376 20.75C14.7848 20.38 14.9167 19.945 14.9167 19.5C14.9167 18.9033 14.6797 18.331 14.2577 17.909C13.8358 17.4871 13.2635 17.25 12.6667 17.25Z" fill="white"/>
<path d="M12.6667 9C12.0734 9 11.4934 9.17595 11 9.50559C10.5067 9.83524 10.1222 10.3038 9.89511 10.852C9.66805 11.4001 9.60864 12.0033 9.72439 12.5853C9.84015 13.1672 10.1259 13.7018 10.5454 14.1213C10.965 14.5409 11.4995 14.8266 12.0815 14.9424C12.6634 15.0581 13.2666 14.9987 13.8148 14.7716C14.363 14.5446 14.8315 14.1601 15.1612 13.6667C15.4908 13.1734 15.6667 12.5933 15.6667 12C15.6667 11.2044 15.3507 10.4413 14.7881 9.87868C14.2255 9.31607 13.4624 9 12.6667 9ZM12.6667 13.5C12.3701 13.5 12.0801 13.412 11.8334 13.2472C11.5867 13.0824 11.3945 12.8481 11.2809 12.574C11.1674 12.2999 11.1377 11.9983 11.1956 11.7074C11.2534 11.4164 11.3963 11.1491 11.6061 10.9393C11.8159 10.7296 12.0831 10.5867 12.3741 10.5288C12.6651 10.4709 12.9667 10.5007 13.2408 10.6142C13.5149 10.7277 13.7491 10.92 13.914 11.1666C14.0788 11.4133 14.1667 11.7033 14.1667 12C14.1667 12.3978 14.0087 12.7794 13.7274 13.0607C13.4461 13.342 13.0646 13.5 12.6667 13.5ZM12.6667 7.5C13.2601 7.5 13.8401 7.32405 14.3335 6.99441C14.8268 6.66477 15.2113 6.19623 15.4384 5.64805C15.6655 5.09987 15.7249 4.49667 15.6091 3.91473C15.4934 3.33279 15.2076 2.79824 14.7881 2.37868C14.3685 1.95912 13.834 1.6734 13.252 1.55765C12.6701 1.44189 12.0669 1.5013 11.5187 1.72836C10.9705 1.95543 10.502 2.33994 10.1723 2.83329C9.8427 3.32664 9.66675 3.90666 9.66675 4.5C9.66675 5.29565 9.98282 6.05871 10.5454 6.62132C11.108 7.18393 11.8711 7.5 12.6667 7.5ZM12.6667 3C12.9634 3 13.2534 3.08797 13.5001 3.2528C13.7468 3.41762 13.939 3.65189 14.0526 3.92598C14.1661 4.20007 14.1958 4.50167 14.1379 4.79264C14.08 5.08361 13.9372 5.35088 13.7274 5.56066C13.5176 5.77044 13.2504 5.9133 12.9594 5.97118C12.6684 6.02906 12.3668 5.99935 12.0927 5.88582C11.8186 5.77229 11.5844 5.58003 11.4195 5.33336C11.2547 5.08668 11.1667 4.79667 11.1667 4.5C11.1667 4.10218 11.3248 3.72065 11.6061 3.43934C11.8874 3.15804 12.2689 3 12.6667 3ZM12.6667 16.5C12.0734 16.5 11.4934 16.676 11 17.0056C10.5067 17.3352 10.1222 17.8038 9.89511 18.352C9.66805 18.9001 9.60864 19.5033 9.72439 20.0853C9.84015 20.6672 10.1259 21.2018 10.5454 21.6213C10.965 22.0409 11.4995 22.3266 12.0815 22.4424C12.6634 22.5581 13.2666 22.4987 13.8148 22.2716C14.363 22.0446 14.8315 21.6601 15.1612 21.1667C15.4908 20.6734 15.6667 20.0933 15.6667 19.5C15.6667 18.7044 15.3507 17.9413 14.7881 17.3787C14.2255 16.8161 13.4624 16.5 12.6667 16.5ZM12.6667 21C12.3701 21 12.0801 20.912 11.8334 20.7472C11.5867 20.5824 11.3945 20.3481 11.2809 20.074C11.1674 19.7999 11.1377 19.4983 11.1956 19.2074C11.2534 18.9164 11.3963 18.6491 11.6061 18.4393C11.8159 18.2296 12.0831 18.0867 12.3741 18.0288C12.6651 17.9709 12.9667 18.0007 13.2408 18.1142C13.5149 18.2277 13.7491 18.42 13.914 18.6666C14.0788 18.9133 14.1667 19.2033 14.1667 19.5C14.1667 19.8978 14.0087 20.2794 13.7274 20.5607C13.4461 20.842 13.0646 21 12.6667 21Z" fill="white"/>
</svg>
