<svg width="40" height="41" viewBox="0 0 40 41" fill="none" xmlns="http://www.w3.org/2000/svg">
<rect y="0.873535" width="40" height="40" rx="20" fill="#1A1A1C"/>
<path d="M19.356 16.6287C17.2906 16.9394 15.707 18.7216 15.707 20.8736C15.707 23.2445 17.629 25.1665 20 25.1665C22.3709 25.1665 24.2929 23.2445 24.2929 20.8736C24.2929 18.7216 22.7093 16.9394 20.6439 16.6287V20.015C20.6439 20.3707 20.3556 20.659 20 20.659C19.6443 20.659 19.356 20.3707 19.356 20.015V16.6287Z" fill="#A962FF"/>
<path d="M20.8588 13.5756C20.8588 14.0498 20.4744 14.4342 20.0002 14.4342C19.526 14.4342 19.1416 14.0498 19.1416 13.5756C19.1416 13.1014 19.526 12.717 20.0002 12.717C20.4744 12.717 20.8588 13.1014 20.8588 13.5756Z" fill="#A962FF"/>
<path d="M27.298 21.7321C26.8239 21.7321 26.4395 21.3477 26.4395 20.8735C26.4395 20.3993 26.8239 20.0149 27.298 20.0149C27.7722 20.0149 28.1566 20.3993 28.1566 20.8735C28.1566 21.3477 27.7722 21.7321 27.298 21.7321Z" fill="#A962FF"/>
<path d="M12.7018 21.7321C12.2277 21.7321 11.8433 21.3477 11.8433 20.8735C11.8433 20.3993 12.2277 20.0149 12.7018 20.0149C13.176 20.0149 13.5604 20.3993 13.5604 20.8735C13.5604 21.3477 13.176 21.7321 12.7018 21.7321Z" fill="#A962FF"/>
<path d="M15.4467 15.106C15.782 15.4413 15.782 15.9849 15.4467 16.3202C15.1114 16.6555 14.5677 16.6555 14.2324 16.3202C13.8971 15.9849 13.8971 15.4413 14.2324 15.106C14.5677 14.7707 15.1114 14.7707 15.4467 15.106Z" fill="#A962FF"/>
<path d="M25.7675 25.427C26.1028 25.7623 26.1028 26.3059 25.7675 26.6412C25.4322 26.9765 24.8885 26.9765 24.5532 26.6412C24.2179 26.3059 24.2179 25.7623 24.5532 25.427C24.8885 25.0917 25.4322 25.0917 25.7675 25.427Z" fill="#A962FF"/>
<path d="M25.7675 16.3202C25.4322 16.6555 24.8885 16.6555 24.5532 16.3202C24.2179 15.9849 24.2179 15.4413 24.5532 15.106C24.8885 14.7707 25.4322 14.7707 25.7675 15.106C26.1028 15.4413 26.1028 15.9849 25.7675 16.3202Z" fill="#A962FF"/>
<path d="M15.4467 26.6412C15.1114 26.9765 14.5677 26.9765 14.2324 26.6412C13.8971 26.3059 13.8971 25.7623 14.2324 25.427C14.5677 25.0917 15.1114 25.0917 15.4467 25.427C15.782 25.7623 15.782 26.3059 15.4467 26.6412Z" fill="#A962FF"/>
</svg>
