<svg width="114" height="81" viewBox="0 0 114 81" fill="none" xmlns="http://www.w3.org/2000/svg">
<path opacity="0.1" d="M114 24.3C114 36.45 111.342 47.5875 106.026 57.7125C100.711 67.8375 92.864 75.5578 82.4858 80.8735L69.5765 70.2422C75.3983 68.2172 80.4608 63.7875 84.764 56.9531C89.8265 49.8656 92.3577 43.411 92.3577 37.5891H67.678V0H114V24.3ZM47.1749 24.3C47.1749 36.1969 44.3905 47.5875 38.8218 58.4719C32.9999 69.3563 25.2796 76.8234 15.6608 80.8735L2.75146 70.2422C8.57334 68.2172 13.6358 63.7875 17.939 56.9531C23.0015 49.8656 25.5327 43.411 25.5327 37.5891H0.853027V0H47.1749V24.3Z" fill="#D7B7FF"/>
</svg>
