<svg width="58" height="58" viewBox="0 0 58 58" fill="none" xmlns="http://www.w3.org/2000/svg">
<rect x="0.5" y="0.5" width="57" height="57" rx="28.5" stroke="white" stroke-opacity="0.15"/>
<rect x="1" y="1" width="56" height="56" rx="28" fill="#1A1A1C"/>
<path opacity="0.2" d="M22.25 25.25L25.25 32.75C25.25 34.4066 23.375 35 22.25 35C21.125 35 19.25 34.4066 19.25 32.75L22.25 25.25ZM35.75 22.25L32.75 29.75C32.75 31.4066 34.625 32 35.75 32C36.875 32 38.75 31.4066 38.75 29.75L35.75 22.25Z" fill="#D7B7FF"/>
<path d="M39.4466 29.4688L36.4466 21.9688C36.3805 21.8035 36.2579 21.6672 36.1006 21.5841C35.9433 21.501 35.7615 21.4765 35.5878 21.515L29.75 22.8125V20.75C29.75 20.5511 29.671 20.3603 29.5303 20.2197C29.3897 20.079 29.1989 20 29 20C28.8011 20 28.6103 20.079 28.4697 20.2197C28.329 20.3603 28.25 20.5511 28.25 20.75V23.1481L22.0869 24.5178C21.9681 24.5441 21.8574 24.5988 21.7645 24.6774C21.6715 24.756 21.5991 24.8559 21.5535 24.9688V24.9744L18.5535 32.4688C18.5176 32.5581 18.4994 32.6537 18.5 32.75C18.5 34.9353 20.8006 35.75 22.25 35.75C23.6994 35.75 26 34.9353 26 32.75C26.0006 32.6537 25.9825 32.5581 25.9466 32.4688L23.2738 25.7909L28.25 24.6875V36.5H26.75C26.5511 36.5 26.3603 36.579 26.2197 36.7197C26.079 36.8603 26 37.0511 26 37.25C26 37.4489 26.079 37.6397 26.2197 37.7803C26.3603 37.921 26.5511 38 26.75 38H31.25C31.4489 38 31.6397 37.921 31.7803 37.7803C31.921 37.6397 32 37.4489 32 37.25C32 37.0511 31.921 36.8603 31.7803 36.7197C31.6397 36.579 31.4489 36.5 31.25 36.5H29.75V24.3519L34.5313 23.2906L32.0535 29.4688C32.0176 29.5581 31.9994 29.6537 32 29.75C32 31.9353 34.3006 32.75 35.75 32.75C37.1994 32.75 39.5 31.9353 39.5 29.75C39.5006 29.6537 39.4825 29.5581 39.4466 29.4688ZM22.25 34.25C21.5441 34.25 20.1163 33.9116 20.0066 32.8775L22.25 27.2694L24.4935 32.8775C24.3838 33.9116 22.956 34.25 22.25 34.25ZM35.75 31.25C35.0441 31.25 33.6163 30.9116 33.5066 29.8775L35.75 24.2694L37.9935 29.8775C37.8838 30.9116 36.456 31.25 35.75 31.25Z" fill="#D7B7FF"/>
</svg>
