<svg width="24" height="25" viewBox="0 0 24 25" fill="none" xmlns="http://www.w3.org/2000/svg">
<path opacity="0.2" d="M14.25 18.5V14C8.49377 14 4.44283 17.4866 2.89971 19.13C2.8459 19.1877 2.77525 19.227 2.69782 19.2422C2.62039 19.2575 2.54013 19.2479 2.46847 19.2148C2.3968 19.1818 2.33738 19.127 2.29867 19.0583C2.25995 18.9895 2.24391 18.9103 2.25283 18.8319C2.95408 12.7297 9.29908 8 14.25 8V3.5L21.75 11L14.25 18.5Z" fill="#D7B7FF"/>
<path d="M22.2806 10.4703L14.7806 2.97033C14.6758 2.86538 14.5422 2.79387 14.3967 2.76486C14.2512 2.73584 14.1004 2.75061 13.9633 2.80731C13.8263 2.86401 13.7091 2.96008 13.6266 3.08339C13.5441 3.20669 13.5001 3.35168 13.5 3.50002V7.28283C11.0681 7.49096 8.38219 8.68158 6.1725 10.5556C3.51188 12.8131 1.85532 15.7222 1.5075 18.7466C1.48032 18.9817 1.528 19.2194 1.64375 19.4259C1.75949 19.6324 1.93741 19.7971 2.15218 19.8966C2.36695 19.996 2.60764 20.0253 2.83997 19.98C3.07231 19.9348 3.28447 19.8175 3.44625 19.6447C4.4775 18.5469 8.14688 15.0753 13.5 14.7697V18.5C13.5001 18.6484 13.5441 18.7934 13.6266 18.9167C13.7091 19.04 13.8263 19.136 13.9633 19.1927C14.1004 19.2494 14.2512 19.2642 14.3967 19.2352C14.5422 19.2062 14.6758 19.1347 14.7806 19.0297L22.2806 11.5297C22.4209 11.3891 22.4997 11.1986 22.4997 11C22.4997 10.8014 22.4209 10.6109 22.2806 10.4703ZM15 16.6897V14C15 13.8011 14.921 13.6103 14.7803 13.4697C14.6397 13.329 14.4489 13.25 14.25 13.25C11.6175 13.25 9.05344 13.9372 6.62907 15.2938C5.39433 15.9877 4.24389 16.822 3.20063 17.78C3.74438 15.545 5.115 13.4197 7.14282 11.6994C9.31969 9.85346 11.9766 8.75002 14.25 8.75002C14.4489 8.75002 14.6397 8.671 14.7803 8.53035C14.921 8.3897 15 8.19893 15 8.00002V5.31127L20.6897 11L15 16.6897Z" fill="#D7B7FF"/>
</svg>
