<svg width="16" height="17" viewBox="0 0 16 17" fill="none" xmlns="http://www.w3.org/2000/svg">
<g filter="url(#filter0_d_44_612)">
<path d="M7.27797 8.07676C6.98201 8.42069 6.62214 8.60387 6.19836 8.6263C6.62214 8.64873 6.98201 8.83191 7.27797 9.17957C7.57394 9.5235 7.72193 9.93472 7.72193 10.4095C7.72193 10.0955 7.78919 9.80762 7.92372 9.53845C8.06162 9.26929 8.2466 9.05247 8.47866 8.89172C8.71409 8.72723 8.9697 8.64125 9.24885 8.6263C8.82172 8.60013 8.46185 8.42069 8.16588 8.07676C7.86991 7.73284 7.72193 7.32536 7.72193 6.85059C7.72193 7.32536 7.57394 7.73284 7.27797 8.07676Z" fill="white"/>
</g>
<defs>
<filter id="filter0_d_44_612" x="0.0164003" y="0.668622" width="15.4145" height="15.9229" filterUnits="userSpaceOnUse" color-interpolation-filters="sRGB">
<feFlood flood-opacity="0" result="BackgroundImageFix"/>
<feColorMatrix in="SourceAlpha" type="matrix" values="0 0 0 0 0 0 0 0 0 0 0 0 0 0 0 0 0 0 127 0" result="hardAlpha"/>
<feOffset/>
<feGaussianBlur stdDeviation="3.09098"/>
<feComposite in2="hardAlpha" operator="out"/>
<feColorMatrix type="matrix" values="0 0 0 0 0.941176 0 0 0 0 0.933333 0 0 0 0 0.858824 0 0 0 0.25 0"/>
<feBlend mode="normal" in2="BackgroundImageFix" result="effect1_dropShadow_44_612"/>
<feBlend mode="normal" in="SourceGraphic" in2="effect1_dropShadow_44_612" result="shape"/>
</filter>
</defs>
</svg>
